<svg width="36" height="36" viewBox="0 0 36 36" fill="none" xmlns="http://www.w3.org/2000/svg">
<path d="M35.6499 14.4747H34.2V14.4H18V21.6H28.1727C26.6886 25.7913 22.7007 28.8 18 28.8C12.0357 28.8 7.2 23.9643 7.2 18C7.2 12.0357 12.0357 7.2 18 7.2C20.7531 7.2 23.2578 8.2386 25.1649 9.9351L30.2562 4.8438C27.0414 1.8477 22.7412 0 18 0C8.0595 0 0 8.0595 0 18C0 27.9405 8.0595 36 18 36C27.9405 36 36 27.9405 36 18C36 16.7931 35.8758 15.615 35.6499 14.4747Z" fill="#FFC107"/>
<path d="M2.07544 9.6219L7.98934 13.959C9.58954 9.9972 13.4649 7.2 18 7.2C20.7531 7.2 23.2578 8.2386 25.1649 9.9351L30.2562 4.8438C27.0414 1.8477 22.7412 0 18 0C11.0862 0 5.09044 3.9033 2.07544 9.6219Z" fill="#FF3D00"/>
<path d="M18 36.0001C22.6494 36.0001 26.874 34.2208 30.0681 31.3273L24.4971 26.6131C22.6292 28.0336 20.3467 28.8019 18 28.8001C13.3182 28.8001 9.34286 25.8148 7.84526 21.6487L1.97546 26.1712C4.95446 32.0005 11.0043 36.0001 18 36.0001Z" fill="#4CAF50"/>
<path d="M35.6499 14.4746H34.2V14.3999H18V21.5999H28.1727C27.4628 23.5947 26.184 25.3378 24.4944 26.6138L24.4971 26.612L30.0681 31.3262C29.6739 31.6844 36 26.9999 36 17.9999C36 16.793 35.8758 15.6149 35.6499 14.4746Z" fill="#1976D2"/>
</svg>
